<svg width="16" height="16" viewBox="0 0 16 16" fill="none" xmlns="http://www.w3.org/2000/svg">
<path fill-rule="evenodd" clip-rule="evenodd" d="M5.6299 8.44466C5.40116 8.20489 5.02137 8.19595 4.78161 8.42469C4.54184 8.65342 4.5329 9.03322 4.76164 9.27298L6.47668 11.1029C6.72193 11.3599 7.13559 11.3488 7.36663 11.0789L11.094 6.3878C11.3095 6.13606 11.2801 5.7573 11.0284 5.54181C10.7767 5.32633 10.3979 5.35572 10.1824 5.60746L7.07924 9.54961C6.98814 9.66533 6.82048 9.6853 6.70476 9.5942C6.69399 9.58573 6.68389 9.57643 6.67455 9.5664L5.6299 8.44466ZM1.33301 7.99967C1.33301 4.33301 4.33301 1.33301 7.99967 1.33301C11.6663 1.33301 14.6663 4.33301 14.6663 7.99967C14.6663 11.6663 11.6663 14.6663 7.99967 14.6663C4.33301 14.6663 1.33301 11.6663 1.33301 7.99967Z" fill="#2D7738"/>
</svg>
